<mxfile host="app.diagrams.net" modified="2024-07-02T01:01:51.541Z" agent="Mozilla/5.0 (Windows NT 10.0; Win64; x64) AppleWebKit/537.36 (KHTML, like Gecko) Chrome/124.0.0.0 Safari/537.36" version="24.6.4" etag="dlb_gX26GSKLPJnsTRra" type="github">
  <diagram name="第 1 页" id="3oTNAuBf15RSntJX-Hds">
    <mxGraphModel>
      <root>
        <mxCell id="0" />
        <mxCell id="1" parent="0" />
      </root>
    </mxGraphModel>
  </diagram>
</mxfile>
